<svg width="41" height="39" viewBox="0 0 41 39" fill="none" xmlns="http://www.w3.org/2000/svg">
<g clip-path="url(#clip0_161_134)">
<path d="M30.3424 19.2178H9.82739V20.7907H30.3424V19.2178Z" fill="#111212"/>
<path d="M10.9902 1.56283C5.79086 1.56283 1.56283 5.79086 1.56283 10.9902V28.0065C1.56283 33.2059 5.79086 37.4339 10.9902 37.4339H29.1761C34.3755 37.4339 38.6035 33.2059 38.6035 28.0065V10.9902C38.6035 5.79086 34.3755 1.56283 29.1761 1.56283H10.9902ZM29.1761 39.0001H10.9902C4.93047 39.0001 0 34.0663 0 28.0065V10.9902C0 4.93047 4.93047 0 10.9902 0H29.1761C35.2359 0 40.1663 4.93047 40.1663 10.9902V28.0065C40.1663 34.0663 35.2359 38.9967 29.1761 38.9967" fill="#111212"/>
<path d="M12.9071 29.6111L19.394 20.178L13.0622 11.0033H14.8584L20.2598 18.9504L25.6741 11.0033H27.4703L21.1385 20.178L27.6253 29.6111H25.8292L20.2598 21.4314L14.7033 29.6111H12.9071Z" fill="black"/>
</g>
<defs>
<clipPath id="clip0_161_134">
<rect width="40.1697" height="39.0001" fill="white"/>
</clipPath>
</defs>
</svg>
